<svg id="レイヤー_2" data-name="レイヤー 2" xmlns="http://www.w3.org/2000/svg" xmlns:xlink="http://www.w3.org/1999/xlink" viewBox="0 0 172 50"><defs><style>.cls-1{fill:none;}.cls-2{clip-path:url(#clip-path);}.cls-3,.cls-4{fill:#fff;}.cls-4{font-size:12px;font-family:KozGoPr6N-Heavy-83pv-RKSJ-H, Kozuka Gothic Pr6N;letter-spacing:0.1em;}</style><clipPath id="clip-path"><rect class="cls-1" width="172" height="50"/></clipPath></defs><title>logo</title><g class="cls-2"><rect class="cls-1" x="-514" y="-34" width="1200" height="800"/><path class="cls-3" d="M11.37.94c.2,2,.28,9.39.28,9.86l0,0c-.21,0-1.81.1-3.14.1-1,0-2.47-.07-2.68-.08l0,0c0-.47,0-7.89.28-9.88,0,0,0,0,0,0H3.66a0,0,0,0,0,0,0c.18,2.13.29,6.13.29,10.57,0,5-.14,9.42-.35,11.23,0,0,0,.05,0,.05H6.1a0,0,0,0,0,0-.05C5.82,20,5.79,13,5.79,12.56c0,0,0,0,0,0,.22,0,1.89-.08,2.68-.08,1,0,2.9.09,3.14.1l0,0c0,.4,0,5.75-.35,10.17a0,0,0,0,0,0,.05h2.5a0,0,0,0,0,0-.05c-.3-4.86-.35-6.25-.35-11.23,0-4.44.11-8.44.29-10.57a0,0,0,0,0,0,0H11.41A0,0,0,0,0,11.37.94Z"/><path class="cls-3" d="M50.27,5.77c0-1,.32-3.24,2.59-3.17,2.69.09,2.44,2.9,2.26,3.89,0,0,0,0,0,0h2.21a0,0,0,0,0,0,0c.05-1.4.08-6-4.54-6C50,.52,48.3,2.68,48.3,5.84c0,4.05,2.92,5.77,4.56,7a5.66,5.66,0,0,1,2.55,4.63c0,1.1-.17,3.79-2.55,3.79-3,0-2.63-3.49-2.51-4.38,0,0,0,0,0,0H48a0,0,0,0,0,0,0c0,1.71,0,3.77,1.28,5.07a4.57,4.57,0,0,0,3.61,1.42c2.67,0,4.52-2.32,4.52-5.93,0-4-2.62-5.86-4.52-7.17A5.22,5.22,0,0,1,50.27,5.77Z"/><path class="cls-3" d="M69.82,12.6V10.53s0,0,0,0a33.23,33.23,0,0,1-5.15.27s0,0,0,0c0-.45,0-7.25.06-7.9a0,0,0,0,1,0,0A23.13,23.13,0,0,1,70,3.15a0,0,0,0,0,0,0V.87a0,0,0,0,0,0,0c-1.1,0-5.24.14-7.5,0a0,0,0,0,0,0,0c.18,2.12.29,6.22.29,10.63,0,5-.14,9.47-.35,11.31,0,0,0,0,0,0,2.14-.13,5.65-.05,7.77,0a0,0,0,0,0,0,0V20.58s0,0,0,0a27.09,27.09,0,0,1-5.49.33,0,0,0,0,1,0,0c-.06-.49,0-8,0-8.47a0,0,0,0,1,0,0,31.42,31.42,0,0,1,5.14.27A0,0,0,0,0,69.82,12.6Z"/><path class="cls-3" d="M93.77,11.51s0,8.84-.35,11.21a0,0,0,0,0,0,.05h2.29a0,0,0,0,0,0-.05c-.15-5.53-.12-10-.12-10.33,0,0,0,0,0,0a31.31,31.31,0,0,1,5.13.27s0,0,0,0V10.53s0,0,0,0a33.11,33.11,0,0,1-5.14.27s0,0,0,0c0-.43,0-6.69.06-7.9a0,0,0,0,1,0,0,23.15,23.15,0,0,1,5.27.34,0,0,0,0,0,0,0V.87a0,0,0,0,0,0,0c-1.1,0-5.24.14-7.5,0,0,0,0,0,0,0C93.66,3,93.77,7.1,93.77,11.51Z"/><path class="cls-3" d="M111.52.89h-2.29a0,0,0,0,0,0,0c.18,2.13.29,6.13.29,10.58,0,5-.14,9.46-.35,11.3,0,0,0,0,0,0,.42,0,3.78-.12,7.71,0a0,0,0,0,0,0,0V20.58a0,0,0,0,0,0,0,25.26,25.26,0,0,1-5.43.33s0,0,0,0c-.07-2-.16-15.29.15-19.93C111.57.91,111.55.89,111.52.89Z"/><path class="cls-3" d="M28.47,12.06c0-4.12.32-11.6-4.84-11.6S18.72,8,18.72,12.09c0,3.75-.42,11.25,4.93,11.25C28.82,23.34,28.47,15.36,28.47,12.06Zm-2.14,5.67c-.42,2.39-1.25,3.29-2.7,3.29s-2.49-1-2.83-3.44a44.18,44.18,0,0,1-.21-5.49s0-3.6.19-5.42c.34-3.35,1.55-4,2.85-4s2.56.63,2.86,4c.14,1.66.12,5.43.12,5.43A37.25,37.25,0,0,1,26.33,17.73ZM41.12.94c.16,2.09.29,6.92.27,11.57,0,5.8.31,8.51-2.87,8.51-3.39,0-2.91-3.36-2.91-8.51,0-4.65.12-9.48.28-11.57a0,0,0,0,0,0,0h-2.3s0,0,0,0c.16,2.1.27,6.79.27,11.44.1,4.08-.83,10.95,4.73,10.95s4.6-6.66,4.72-10.95c0,0,0-9.1.25-11.44a0,0,0,0,0,0,0H41.16S41.11.92,41.12.94ZM161.3,5.77c0-1,.32-3.24,2.59-3.17,2.69.09,2.44,2.9,2.26,3.89,0,0,0,0,0,0h2.21a0,0,0,0,0,0,0c0-1.4.08-6-4.54-6-2.88,0-4.56,2.16-4.56,5.32,0,4.05,2.92,5.77,4.56,7a5.66,5.66,0,0,1,2.55,4.63c0,1.1-.17,3.79-2.55,3.79-2.95,0-2.63-3.49-2.51-4.38,0,0,0,0,0,0H159a0,0,0,0,0,0,0c0,1.71,0,3.77,1.28,5.07a4.57,4.57,0,0,0,3.61,1.42c2.67,0,4.52-2.32,4.52-5.93,0-4-2.62-5.86-4.52-7.17A5.22,5.22,0,0,1,161.3,5.77ZM152.15.94c.16,2.09.29,6.92.27,11.57,0,5.8.31,8.51-2.87,8.51-3.39,0-2.91-3.36-2.91-8.51,0-4.65.12-9.48.28-11.57a0,0,0,0,0,0,0h-2.3s0,0,0,0c.16,2.1.27,6.79.27,11.44.1,4.08-.83,10.95,4.73,10.95s4.6-6.66,4.72-10.95c0,0,0-9.1.25-11.44a0,0,0,0,0,0,0h-2.29S152.14.92,152.15.94ZM18.72,12.09c0,3.75-.42,11.25,4.93,11.25,5.17,0,4.82-8,4.82-11.28,0-4.12.32-11.6-4.84-11.6S18.72,8,18.72,12.09m7.61,5.64c-.42,2.39-1.25,3.29-2.7,3.29s-2.49-1-2.83-3.44a44.18,44.18,0,0,1-.21-5.49s0-3.6.19-5.42c.34-3.35,1.55-4,2.85-4s2.56.63,2.86,4c.14,1.66.12,5.43.12,5.43A37.25,37.25,0,0,1,26.33,17.73Zm62.42-5.67c0-4.12.32-11.6-4.84-11.6S79,8,79,12.09c0,3.75-.43,11.25,4.93,11.25C89.1,23.34,88.75,15.36,88.75,12.06Zm-2.13,5.67C86.2,20.12,85.36,21,83.91,21s-2.49-1-2.83-3.44a46.21,46.21,0,0,1-.21-5.49s0-3.6.19-5.42c.34-3.35,1.56-4,2.85-4s2.56.63,2.86,4c.15,1.66.12,5.43.12,5.43A36,36,0,0,1,86.62,17.73ZM79,12.09c0,3.75-.43,11.25,4.93,11.25,5.16,0,4.81-8,4.81-11.28,0-4.12.32-11.6-4.84-11.6S79,8,79,12.09m7.61,5.64C86.2,20.12,85.36,21,83.91,21s-2.49-1-2.83-3.44a46.21,46.21,0,0,1-.21-5.49s0-3.6.19-5.42c.34-3.35,1.56-4,2.85-4s2.56.63,2.86,4c.15,1.66.12,5.43.12,5.43A36,36,0,0,1,86.62,17.73ZM129,12.06c0-4.12.32-11.6-4.84-11.6S119.27,8,119.27,12.09c0,3.75-.42,11.25,4.93,11.25C129.37,23.34,129,15.36,129,12.06Zm-2.14,5.67c-.42,2.39-1.25,3.29-2.7,3.29-1.6,0-2.49-1-2.83-3.44a44.18,44.18,0,0,1-.21-5.49s0-3.6.19-5.42c.34-3.35,1.55-4,2.85-4s2.56.63,2.86,4c.14,1.66.12,5.43.12,5.43A37.25,37.25,0,0,1,126.88,17.73Zm-7.61-5.64c0,3.75-.42,11.25,4.93,11.25,5.17,0,4.82-8,4.82-11.28,0-4.12.32-11.6-4.84-11.6S119.27,8,119.27,12.09m7.61,5.64c-.42,2.39-1.25,3.29-2.7,3.29-1.6,0-2.49-1-2.83-3.44a44.18,44.18,0,0,1-.21-5.49s0-3.6.19-5.42c.34-3.35,1.55-4,2.85-4s2.56.63,2.86,4c.14,1.66.12,5.43.12,5.43A37.25,37.25,0,0,1,126.88,17.73Z"/><path class="cls-3" d="M137.58,2.87a29.07,29.07,0,0,1,3.16.26l.25,0a0,0,0,0,0,0,0V.93s0,0,0,0c-2.39.08-6.28.13-8.78,0,0,0,0,0,0,0V3.15a0,0,0,0,0,0,0,31.57,31.57,0,0,1,3.41-.31s0,0,0,0c0,.51.2,9.36-.31,19.85,0,0,0,0,0,0h2.5s0,0,0,0c-.54-7.12-.32-19.25-.31-19.85A0,0,0,0,1,137.58,2.87Z"/><text class="cls-4" transform="translate(0.2 46.61)">ギンガムチェックの服とカゴ</text></g></svg>