<svg xmlns="http://www.w3.org/2000/svg" viewBox="0 0 188.57 54.07"><defs><style>.cls-1{fill:#333;}</style></defs><title>title_logo</title><g id="レイヤー_2" data-name="レイヤー 2"><g id="ol"><path class="cls-1" d="M8.93.56c.23,2.24.32,10.73.33,11.27l0,0c-.24,0-2.07.12-3.59.12-1.11,0-2.83-.08-3.06-.09a0,0,0,0,1,0,0c0-.54.05-9,.32-11.29,0,0,0-.05,0-.05H.12a0,0,0,0,0,0,.05C.28,3,.4,7.56.4,12.64.4,18.37.24,23.41,0,25.49c0,0,0,.05,0,.05H2.9s.05,0,0-.05c-.36-3.2-.39-11.13-.39-11.65a0,0,0,0,1,0,0c.25,0,2.16-.09,3.06-.09,1.1,0,3.32.1,3.59.11,0,0,0,0,0,0,0,.45,0,6.57-.4,11.63a.05.05,0,0,0,.05.05h2.86a0,0,0,0,0,0-.05c-.35-5.56-.4-7.15-.4-12.85,0-5.08.13-9.65.33-12.08a0,0,0,0,0,0-.05H9A0,0,0,0,0,8.93.56Z"/><path class="cls-1" d="M53.42,6.08c0-1.12.37-3.71,3-3.63,3.08.1,2.8,3.32,2.58,4.45a0,0,0,0,0,0,0h2.53a.05.05,0,0,0,0,0c.05-1.6.09-6.82-5.2-6.82-3.3,0-5.21,2.46-5.21,6.08,0,4.63,3.34,6.59,5.21,8a6.44,6.44,0,0,1,2.92,5.29c0,1.25-.19,4.33-2.92,4.33-3.37,0-3-4-2.87-5,0,0,0,0,0,0H50.84a0,0,0,0,0-.05,0c0,1.95,0,4.32,1.47,5.8a5.17,5.17,0,0,0,4.12,1.63c3.06,0,5.18-2.66,5.18-6.79,0-4.57-3-6.7-5.18-8.2A6,6,0,0,1,53.42,6.08Z"/><path class="cls-1" d="M75.78,13.89V11.52s0,0,0,0a36.36,36.36,0,0,1-5.88.31,0,0,0,0,1,0,0c0-.51,0-8.3.07-9a0,0,0,0,1,0,0,27,27,0,0,1,6,.38,0,0,0,0,0,0,0V.47a0,0,0,0,0,0,0c-1.26,0-6,.17-8.58,0,0,0,0,0,0,0,.2,2.43.33,7.12.33,12.16,0,5.69-.16,10.84-.4,12.93,0,0,0,.05,0,.05,2.44-.15,6.45-.05,8.88,0a0,0,0,0,0,0,0V23s0-.05,0,0a30.78,30.78,0,0,1-6.28.38,0,0,0,0,1,0,0c-.05-.56,0-9.14,0-9.68,0,0,0,0,0,0a36,36,0,0,1,5.88.31S75.78,13.92,75.78,13.89Z"/><path class="cls-1" d="M103.17,12.64s0,10.11-.4,12.83a0,0,0,0,0,0,0h2.62a0,0,0,0,0,0,0c-.17-6.33-.14-11.41-.13-11.82,0,0,0,0,0,0a36,36,0,0,1,5.88.31s0,0,0,0V11.52a0,0,0,0,0,0,0,36.47,36.47,0,0,1-5.89.31s0,0,0,0c0-.49,0-7.65.07-9a0,0,0,0,1,0,0,27,27,0,0,1,6,.38,0,0,0,0,0,0,0V.47a0,0,0,0,0,0,0c-1.26,0-6,.17-8.58,0,0,0,0,0,0,0C103.05,2.91,103.17,7.6,103.17,12.64Z"/><path class="cls-1" d="M123.47.49h-2.62a0,0,0,0,0,0,.05c.21,2.44.33,7,.33,12.1,0,5.68-.16,10.83-.4,12.93a0,0,0,0,0,0,0c.47,0,4.32-.14,8.81,0a0,0,0,0,0,0,0V23s0-.05,0,0a29,29,0,0,1-6.22.38s0,0,0,0c-.09-2.26-.19-17.48.17-22.79A.05.05,0,0,0,123.47.49Z"/><path class="cls-1" d="M28.49,13.27C28.49,8.55,28.86,0,23,0s-5.61,8.64-5.61,13.31c0,4.28-.49,12.87,5.64,12.87C28.88,26.18,28.49,17,28.49,13.27ZM26,19.76c-.48,2.73-1.43,3.75-3.09,3.75-1.82,0-2.85-1.11-3.23-3.93a49.11,49.11,0,0,1-.24-6.27s0-4.12.21-6.21c.39-3.83,1.78-4.56,3.26-4.56s2.93.72,3.27,4.56c.17,1.9.14,6.22.14,6.22A40.44,40.44,0,0,1,26,19.76ZM43,.56c.19,2.39.34,7.91.32,13.23,0,6.63.35,9.72-3.29,9.72-3.87,0-3.32-3.84-3.32-9.72,0-5.32.13-10.84.32-13.23a0,0,0,0,0,0-.05H34.3a0,0,0,0,0,0,.05c.18,2.39.32,7.76.32,13.08.11,4.67-1,12.52,5.4,12.52s5.26-7.62,5.4-12.52c0,0,0-10.41.29-13.08a0,0,0,0,0,0-.05H43A0,0,0,0,0,43,.56ZM180.41,6.08c0-1.12.36-3.71,3-3.63,3.07.1,2.79,3.32,2.57,4.45a0,0,0,0,0,0,0h2.53a0,0,0,0,0,.05,0c.05-1.6.09-6.82-5.19-6.82-3.31,0-5.22,2.46-5.22,6.08,0,4.63,3.34,6.59,5.22,8a6.46,6.46,0,0,1,2.91,5.29c0,1.25-.19,4.33-2.91,4.33-3.38,0-3-4-2.88-5,0,0,0,0,0,0h-2.64s0,0,0,0c-.05,1.95,0,4.32,1.47,5.8a5.18,5.18,0,0,0,4.13,1.63c3,0,5.17-2.66,5.17-6.79,0-4.57-3-6.7-5.17-8.2A5.93,5.93,0,0,1,180.41,6.08ZM169.93.56c.19,2.39.34,7.91.32,13.23,0,6.63.35,9.72-3.29,9.72-3.87,0-3.32-3.84-3.32-9.72,0-5.32.13-10.84.32-13.23a0,0,0,0,0-.05-.05h-2.63a0,0,0,0,0,0,.05c.19,2.39.32,7.76.32,13.08.11,4.67-1,12.52,5.4,12.52s5.26-7.62,5.4-12.52c0,0,0-10.41.29-13.08a0,0,0,0,0,0-.05H170A0,0,0,0,0,169.93.56ZM17.34,13.31c0,4.28-.49,12.87,5.64,12.87,5.9,0,5.51-9.14,5.51-12.91C28.49,8.55,28.86,0,23,0s-5.61,8.64-5.61,13.31M26,19.76c-.48,2.73-1.43,3.75-3.09,3.75-1.82,0-2.85-1.11-3.23-3.93a49.11,49.11,0,0,1-.24-6.27s0-4.12.21-6.21c.39-3.83,1.78-4.56,3.26-4.56s2.93.72,3.27,4.56c.17,1.9.14,6.22.14,6.22A40.44,40.44,0,0,1,26,19.76Zm71.39-6.49C97.43,8.55,97.8,0,91.9,0s-5.61,8.64-5.61,13.31c0,4.28-.49,12.87,5.63,12.87C97.83,26.18,97.43,17,97.43,13.27ZM95,19.76c-.48,2.73-1.44,3.75-3.09,3.75-1.83,0-2.86-1.11-3.24-3.93a51,51,0,0,1-.24-6.27s0-4.12.22-6.21C89,3.27,90.41,2.54,91.9,2.54s2.93.72,3.26,4.56c.17,1.9.14,6.22.14,6.22A41.62,41.62,0,0,1,95,19.76Zm-8.7-6.45c0,4.28-.49,12.87,5.63,12.87,5.91,0,5.51-9.14,5.51-12.91C97.43,8.55,97.8,0,91.9,0s-5.61,8.64-5.61,13.31M95,19.76c-.48,2.73-1.44,3.75-3.09,3.75-1.83,0-2.86-1.11-3.24-3.93a51,51,0,0,1-.24-6.27s0-4.12.22-6.21C89,3.27,90.41,2.54,91.9,2.54s2.93.72,3.26,4.56c.17,1.9.14,6.22.14,6.22A41.62,41.62,0,0,1,95,19.76Zm48.49-6.49C143.48,8.55,143.85,0,138,0s-5.61,8.64-5.61,13.31c0,4.28-.49,12.87,5.64,12.87C143.88,26.18,143.48,17,143.48,13.27ZM141,19.76c-.48,2.73-1.43,3.75-3.09,3.75-1.83,0-2.85-1.11-3.24-3.93a53.06,53.06,0,0,1-.24-6.27s0-4.12.22-6.21c.39-3.83,1.77-4.56,3.26-4.56s2.93.72,3.27,4.56c.16,1.9.13,6.22.13,6.22A41.62,41.62,0,0,1,141,19.76Zm-8.7-6.45c0,4.28-.49,12.87,5.64,12.87,5.9,0,5.5-9.14,5.5-12.91C143.48,8.55,143.85,0,138,0s-5.61,8.64-5.61,13.31m8.7,6.45c-.48,2.73-1.43,3.75-3.09,3.75-1.83,0-2.85-1.11-3.24-3.93a53.06,53.06,0,0,1-.24-6.27s0-4.12.22-6.21c.39-3.83,1.77-4.56,3.26-4.56s2.93.72,3.27,4.56c.16,1.9.13,6.22.13,6.22A41.62,41.62,0,0,1,141,19.76Z"/><path class="cls-1" d="M153.28,2.76a32.88,32.88,0,0,1,3.61.3l.29,0s0,0,0,0V.54a0,0,0,0,0,0,0c-2.73.09-7.18.15-10,0a0,0,0,0,0,0,0V3.08s0,0,0,0a34,34,0,0,1,3.9-.35,0,0,0,0,1,0,0c0,.58.22,10.71-.36,22.71,0,0,0,0,0,0h2.85a0,0,0,0,0,0,0c-.61-8.15-.36-22-.35-22.71C153.25,2.77,153.26,2.76,153.28,2.76Z"/><path class="cls-1" d="M14.91,47.46l.21,1.84-4.44.56.41,3.59-2,.22-.39-3.55-4.41.57L4,48.85l4.42-.57-.23-2-3.57.45-.22-1.85L8,44.47l-.29-2.33L10.2,42c0,.15-.1.28-.37.36L10,44.22l2.65-.35c-.32-.38-.68-.78-1-1.07l.88-.62a8.43,8.43,0,0,1,1.49,1.68l-.55.37.17,1.41-3.44.43.23,2Zm.24-3.77A11.19,11.19,0,0,0,13.71,42l.83-.66A10.62,10.62,0,0,1,16.07,43Z"/><path class="cls-1" d="M19.73,42.84a16.94,16.94,0,0,1,3.79,1.68l-1,1.81a20,20,0,0,0-3.68-1.77Zm-.62,8.7c4.28-1.31,7.26-3.84,8.75-7.41a12.18,12.18,0,0,0,1.86,1.17,15.24,15.24,0,0,1-9,7.88.49.49,0,0,1-.24.35Z"/><path class="cls-1" d="M43.41,45.05a.44.44,0,0,1-.18.24c-.2,4.05-.59,6.36-1.08,7.1A2.46,2.46,0,0,1,40,53.49a11.59,11.59,0,0,1-2.2-.24,13.43,13.43,0,0,0-.15-2,12.22,12.22,0,0,0,2,.29.81.81,0,0,0,.82-.48,16.28,16.28,0,0,0,.62-4.52H38.32a12.17,12.17,0,0,1-4,7,11,11,0,0,0-1.62-1.2,9.73,9.73,0,0,0,3.47-5.76h-3V44.69h3.31c.12-.89.14-1.61.19-2.58l2.54.21c0,.16-.16.27-.42.31-.08.77-.11,1.34-.21,2.07h2.92l.36-.14Zm-2.32-3.18a11,11,0,0,1,1.46,1.75l-.92.68a13.94,13.94,0,0,0-1.41-1.78Zm2.11-.5a10.8,10.8,0,0,1,1.47,1.71l-.92.67A13,13,0,0,0,42.34,42Z"/><path class="cls-1" d="M56.44,53.42c-.21-.54-.41-1-.62-1.43-2.9.35-6.09.64-8,.73a.39.39,0,0,1-.3.29l-.65-2.29,1.33,0c.77-2.38,1.8-6,2.35-8.43l2.5.63c0,.15-.2.25-.43.26-.58,2.1-1.51,5-2.34,7.47,1.24,0,3.44-.22,4.64-.35A17.74,17.74,0,0,0,53.4,48l1.68-.91a26.69,26.69,0,0,1,3.32,5.36Z"/><path class="cls-1" d="M72.27,48.37H68.19a6.7,6.7,0,0,1-3.56,5.33A14.2,14.2,0,0,0,63,52.42c2.05-1.09,2.94-2.29,3.18-4.05h-4.7V46.56h4.86V44.82c-1.07.18-2.44.36-3.71.46a10.75,10.75,0,0,0-.52-1.54,33.19,33.19,0,0,0,7.84-1.59l1.36,1.51c-.08.07-.2.07-.42.07a21.61,21.61,0,0,1-2.77.74l.64,0c0,.15-.13.28-.39.34,0,.63,0,1.17,0,1.71h3.94Z"/><path class="cls-1" d="M84.83,45.65v1.54H82v4h3.54v1.53H76.68V51.15h3.57v-4H77.48V45.65Z"/><path class="cls-1" d="M92.48,45.5a15.57,15.57,0,0,1,.9,2.73l-1.51.43A15.34,15.34,0,0,0,91,45.91Zm7.49.4a.33.33,0,0,1-.35.18c-1.08,3.85-3.17,6.09-6,7.27a6.8,6.8,0,0,0-1.08-1.24c2.63-1,4.67-3,5.51-6.85ZM95.57,45a16.28,16.28,0,0,1,.64,2.82l-1.6.34A17.62,17.62,0,0,0,94,45.3Z"/><path class="cls-1" d="M115,44.87c0,.12-.21.21-.32.28-1.53,4.26-3.52,6.78-7,8.52a7.33,7.33,0,0,0-1.49-1.52,10.4,10.4,0,0,0,5.9-6.26h-3.42a13.69,13.69,0,0,1-2.71,2.87,11.44,11.44,0,0,0-1.63-1.29,12.51,12.51,0,0,0,4-5.45l2.47.55a.47.47,0,0,1-.44.26c-.19.41-.44.82-.64,1.21h3.3l.28-.13Z"/><path class="cls-1" d="M125.47,45.09a.45.45,0,0,1-.41.22c-.57,4.65-1.85,6.77-4.11,6.77-1.58,0-2.63-1.23-2.63-3.54a5.8,5.8,0,0,1,6-5.78c3.66,0,5.68,2.09,5.68,5s-1.49,4.67-4.83,5.57a8.74,8.74,0,0,0-1.28-1.66c3-.59,4-2,4-3.87,0-2.08-1.5-3.24-3.6-3.24a5,5,0,0,0-.78.06Zm-2.46-.3a3.87,3.87,0,0,0-2.74,3.67c0,.95.19,1.67.74,1.67C122.13,50.13,122.85,47.58,123,44.79Z"/><path class="cls-1" d="M137.32,42.1V52c0,1.56-.48,2-2.45,2a6.31,6.31,0,0,0-.49-1.82H135c.55,0,.61,0,.61-.22V49.75h-1a13.82,13.82,0,0,1-.9,4.3,6.44,6.44,0,0,0-1.52-.86c.78-1.77.83-4.4.83-6.31V42.1Zm-2.61,4.65c0,.52,0,.83,0,1.22h.87V46.75Zm.86-2.91h-.86V45h.86Zm7.8,3.21,1.12.39a.46.46,0,0,1-.16.24A11,11,0,0,1,143,51.41a6.8,6.8,0,0,0,1.86,1.22,7.09,7.09,0,0,0-1.17,1.43A7.44,7.44,0,0,1,142,52.79a7.78,7.78,0,0,1-1.57,1.28,9.55,9.55,0,0,0-.61-.87V54H138V42.23h6.07V45c0,1.52-.66,1.8-2.94,1.8a6.82,6.82,0,0,0-.52-1.7c.32,0,.73,0,1,0,.56,0,.62,0,.62-.19V44h-2.47V47.1h3.29Zm-3.59,1.75v.41l1.43-.41a6.89,6.89,0,0,0,.58,1.15,8.16,8.16,0,0,0,.47-1.15Zm0,3.57a5.44,5.44,0,0,0,1.06-1,11.26,11.26,0,0,1-1.06-2.11Z"/><path class="cls-1" d="M157.14,47.12a.27.27,0,0,1-.13,0,.7.7,0,0,1-.33-.09c-3.94,1-6.58,2.27-6.56,3.51,0,.85.86,1.21,2.54,1.21a29,29,0,0,0,4.6-.38l.18,2a44.27,44.27,0,0,1-4.82.26c-2.08,0-4.55-.43-4.55-3,0-1.36,1.14-2.48,3-3.5-.51-1-.64-2.44-.62-5.18l2.74.22c0,.19-.15.3-.44.34,0,.41,0,.8,0,1.18a9.28,9.28,0,0,0,.24,2.53c1-.46,2.22-.9,3.5-1.34Z"/><path class="cls-1" d="M172.18,45a.53.53,0,0,1-.18.24c-.19,4-.6,6.41-1.09,7.15a2.45,2.45,0,0,1-2.14,1.1,11.67,11.67,0,0,1-2.2-.24,12.21,12.21,0,0,0-.15-2,12.22,12.22,0,0,0,2,.29.81.81,0,0,0,.82-.48,16.09,16.09,0,0,0,.64-4.57h-2.74a12.28,12.28,0,0,1-4,7,11,11,0,0,0-1.62-1.2A9.87,9.87,0,0,0,165,46.52h-3V44.68h3.33c.12-.89.12-1.57.17-2.53l2.54.21c0,.16-.16.27-.42.31-.08.77-.09,1.29-.19,2h2.91l.37-.14Z"/><path class="cls-1" d="M186,44.05V53.1H184v-.65h-7.26V50.57H184V45.93h-7.16V44.05Zm-2-2.46a11.9,11.9,0,0,1,1.56,1.65l-.89.73a10.77,10.77,0,0,0-1.51-1.69Zm2.21-.19A7.64,7.64,0,0,1,187.85,43l-.87.73a10.12,10.12,0,0,0-1.51-1.65Z"/></g></g></svg>